<svg width="256" height="256" viewBox="0 0 256 256" fill="none" xmlns="http://www.w3.org/2000/svg" role="img" aria-labelledby="title desc">
  <title id="title">DispatchTalon brand mark</title>
  <desc id="desc">Abstract talon and dispatch-grid mark with a central decision node.</desc>

  <polyline points="56,58 86,42 170,42 200,58" fill="none" stroke="#4D5963" stroke-width="8" stroke-linecap="round" stroke-linejoin="round" opacity="0.68"/>
  <polyline points="42,94 42,162 64,196 104,196" fill="none" stroke="#4D5963" stroke-width="8" stroke-linecap="round" stroke-linejoin="round" opacity="0.68"/>
  <polyline points="214,94 214,162 192,196 152,196" fill="none" stroke="#4D5963" stroke-width="8" stroke-linecap="round" stroke-linejoin="round" opacity="0.68"/>

  <polyline points="58,92 96,92 119,113" fill="none" stroke="#7E8A93" stroke-width="6" stroke-linecap="round" stroke-linejoin="round" opacity="0.50"/>
  <polyline points="58,164 96,164 119,143" fill="none" stroke="#7E8A93" stroke-width="6" stroke-linecap="round" stroke-linejoin="round" opacity="0.50"/>
  <polyline points="204,128 166,128" fill="none" stroke="#7E8A93" stroke-width="6" stroke-linecap="round" stroke-linejoin="round" opacity="0.50"/>
  <polygon points="117,110 128,117 115,122" fill="#7E8A93" opacity="0.50"/>
  <polygon points="117,146 128,139 115,134" fill="#7E8A93" opacity="0.50"/>
  <polygon points="166,128 178,121 178,135" fill="#7E8A93" opacity="0.50"/>
  <polygon points="60,76 130,76 169,111 149,129 121,103 89,103 75,116 49,100" fill="#F2E9DB"/>
  <polygon points="49,156 75,140 89,153 121,153 149,127 169,145 130,180 60,180" fill="#F2E9DB"/>
  <polygon points="55,119 109,119 126,128 109,137 55,137 43,128" fill="#F2E9DB"/>
  <polygon points="136,93 199,128 136,163 125,148 160,128 125,108" fill="#7E8A93" opacity="0.94"/>
  <circle cx="128" cy="128" r="18" fill="#071017" opacity="0.96"/>
  <circle cx="128" cy="128" r="12" fill="#C76432"/>
</svg>
