<svg width="920" height="420" viewBox="0 0 920 420" fill="none" xmlns="http://www.w3.org/2000/svg">
  <path d="M52 222V28H143C190 28 220 54 220 95C220 136 190 162 143 162H90" transform="translate(72 6)" stroke="#1F2528" stroke-width="20" stroke-linecap="round" stroke-linejoin="round"/>
  <path d="M486.038330078125,70.4592132568359C480.423095703125,70.4592132568359 476.052978515625,72.3146820068359 472.927978515625,76.0256195068359 471.365478515625,77.8810882568359 470.193603515625,80.1210784912109 469.412353515625,82.7455902099609L468.459167480469,90.0881195068359 501.931884765625,90.0881195068359C501.492431640625,83.9357757568359 499.893310546875,79.1262054443359 497.134521484375,75.6594085693359 494.375732421875,72.1926116943359 490.677001953125,70.4592132568359 486.038330078125,70.4592132568359z M104.078323364258,70.4592132568359C98.4630889892578,70.4592132568359 94.0929641723633,72.3146820068359 90.9679718017578,76.0256195068359 89.4054718017578,77.8810882568359 88.2335968017578,80.1210784912109 87.4523468017578,82.7455902099609L86.4991607666016,90.0881195068359 119.971878051758,90.0881195068359C119.532417297363,83.9357757568359 117.933296203613,79.1262054443359 115.174514770508,75.6594085693359 112.415718078613,72.1926116943359 108.716987609863,70.4592132568359 104.078323364258,70.4592132568359z M310.255401611328,58.0812835693359L325.196807861328,58.0812835693359 325.196807861328,104.297103881836C325.196807861328,109.619369506836 326.551788330078,113.733139038086 329.261749267578,116.638412475586 331.971710205078,119.543685913086 335.792510986328,120.996322631836 340.724151611328,120.996322631836 345.655792236328,120.996322631836 349.452178955078,119.690170288086 352.113311767578,117.077865600586 354.774444580078,114.465560913086 356.105010986328,110.791244506836 356.105010986328,106.054916381836L356.105010986328,58.0812835693359 370.973175048828,58.0812835693359 370.973175048828,134.106674194336 356.105010986328,134.106674194336 356.105010986328,123.716270446777 354.310577392578,126.809921264648C353.114288330078,128.341903686523 351.661651611328,129.785385131836 349.952667236328,131.140365600586 346.534698486328,133.850326538086 342.066925048828,135.205307006836 336.549346923828,135.205307006836 328.150909423828,135.205307006836 321.668975830078,132.507553100586 317.103546142578,127.112045288086 312.538116455078,121.716537475586 310.255401611328,114.111557006836 310.255401611328,104.297103881836L310.255401611328,58.0812835693359z M486.038330078125,56.9826545715332C495.608642578125,56.9826507568359 503.018310546875,60.4982757568359 508.267333984375,67.5295257568359 513.516357421875,74.5607757568359 516.140869140625,84.4240570068359 516.140869140625,97.1193695068359L516.140869140625,102.099838256836 468.339508056641,102.099838256836 469.494750976563,109.790267944336C470.330932617188,112.207260131836 471.585205078125,114.258041381836 473.257568359375,115.942611694336 476.602294921875,119.311752319336 481.302001953125,120.996322631836 487.356689453125,120.996322631836 490.384033203125,120.996322631836 493.386962890625,120.385971069336 496.365478515625,119.165267944336 499.343994140625,117.944564819336 502.005126953125,116.235580444336 504.348876953125,114.038314819336L514.163330078125,123.852767944336C510.403564453125,127.466049194336 506.179931640625,130.261459350586 501.492431640625,132.238998413086 496.804931640625,134.216537475586 492.093017578125,135.205307006836 487.356689453125,135.205307006836 476.760986328125,135.205307006836 468.557861328125,132.251205444336 462.747314453125,126.343002319336 456.936767578125,120.434799194336 454.031494140625,112.036361694336 454.031494140625,101.147689819336L454.031494140625,92.5783538818359C454.031494140625,81.2502288818359 456.826904296875,72.4855804443359 462.417724609375,66.2844085693359 468.008544921875,60.0832366943359 475.882080078125,56.9826507568359 486.038330078125,56.9826545715332z M428.468780517578,56.9826545715332C431.935577392578,56.9826507568359 435.072784423828,57.4831390380859 437.880401611328,58.4841156005859 440.688018798828,59.4850921630859 443.141632080078,60.9621429443359 445.241241455078,62.9152641296387L435.500030517578,76.0988616943359C434.181671142578,74.4875335693359 432.521514892578,73.2668304443359 430.519561767578,72.4367523193359 428.517608642578,71.6066741943359 426.198272705078,71.1916351318359 423.561553955078,71.1916351318359 418.825225830078,71.1916351318359 415.150909423828,72.4977874755859 412.538604736328,75.1100921630859 409.926300048828,77.7223968505859 408.620147705078,81.3478851318359 408.620147705078,85.9865570068359L408.620147705078,134.106674194336 393.678741455078,134.106674194336 393.678741455078,58.0812835693359 408.620147705078,58.0812835693359 408.620147705078,69.0186157226563 411.064605712891,65.3322601318359C412.572174072266,63.5744476318359 414.259796142578,62.0607757568359 416.127471923828,60.7912445068359 419.862823486328,58.2521820068359 423.976593017578,56.9826507568359 428.468780517578,56.9826545715332z M259.864654541016,56.9826545715332C265.821685791016,56.9826507568359 271.363677978516,57.7883148193359 276.490631103516,59.3996429443359 281.617584228516,61.0109710693359 286.427154541016,63.4767913818359 290.919342041016,66.7971038818359L281.910552978516,77.7101898193359C278.101959228516,75.2687835693359 274.354400634766,73.4377288818359 270.667877197266,72.2170257568359 266.981353759766,70.9963226318359 263.380279541016,70.3859710693359 259.864654541016,70.3859710693359 254.786529541016,70.3859710693359 250.977935791016,71.2526702880859 248.438873291016,72.9860687255859 245.899810791016,74.7194671630859 244.630279541016,77.3195648193359 244.630279541016,80.7863616943359 244.630279541016,83.0812835693359 245.509185791016,84.7292327880859 247.266998291016,85.7302093505859 249.024810791016,86.7311859130859 251.344146728516,87.3781585693359 254.225006103516,87.6711273193359 257.105865478516,87.9640960693359 260.206451416016,88.2326507568359 263.526763916016,88.4767913818359 266.700592041016,88.6721038818359 269.911041259766,89.0261077880859 273.158111572266,89.5388031005859 276.405181884766,90.0514984130859 279.395904541016,91.0402679443359 282.130279541016,92.5051116943359 284.864654541016,93.9699554443359 287.061920166016,96.1428070068359 288.722076416016,99.0236663818359 290.382232666016,101.904525756836 291.212310791016,105.835189819336 291.212310791016,110.815658569336 291.212310791016,118.969955444336 288.563385009766,125.073471069336 283.265533447266,129.126205444336 277.967681884766,133.178939819336 269.996490478516,135.205307006836 259.351959228516,135.205307006836 252.613677978516,135.205307006836 246.497955322266,134.216537475586 241.004791259766,132.238998413086 235.511627197266,130.261459350586 230.592193603516,127.295150756836 226.246490478516,123.340072631836L235.108795166016,112.426986694336C239.259185791016,115.551986694336 243.348541259766,117.895736694336 247.376861572266,119.458236694336 251.405181884766,121.020736694336 255.396881103516,121.801986694336 259.351959228516,121.801986694336 265.260162353516,121.801986694336 269.691314697266,120.886459350586 272.645416259766,119.055404663086 275.599517822266,117.224349975586 277.076568603516,114.477767944336 277.076568603516,110.815658569336 277.076568603516,107.983627319336 276.087799072266,105.981674194336 274.110260009766,104.809799194336 272.132720947266,103.637924194336 269.544830322266,102.868881225586 266.346588134766,102.502670288086 263.148345947266,102.136459350586 259.718170166016,101.831283569336 256.056060791016,101.587142944336 252.979888916016,101.343002319336 249.928131103516,100.964584350586 246.900787353516,100.451889038086 243.873443603516,99.9391937255859 241.114654541016,99.0114593505859 238.624420166016,97.6686859130859 236.134185791016,96.3259124755859 234.144439697266,94.3361663818359 232.655181884766,91.6994476318359 231.165924072266,89.0627288818359 230.421295166016,85.5226898193359 230.421295166016,81.0793304443359 230.421295166016,73.0226898193359 232.887115478516,66.9924163818359 237.818756103516,62.9885139465332 242.750396728516,58.9846038818359 250.099029541016,56.9826507568359 259.864654541016,56.9826545715332z M182.081329345703,56.9826545715332C188.038360595703,56.9826507568359 193.580352783203,57.7883148193359 198.707305908203,59.3996429443359 203.834259033203,61.0109710693359 208.643829345703,63.4767913818359 213.136016845703,66.7971038818359L204.127227783203,77.7101898193359C200.318634033203,75.2687835693359 196.571075439453,73.4377288818359 192.884552001953,72.2170257568359 189.198028564453,70.9963226318359 185.596954345703,70.3859710693359 182.081329345703,70.3859710693359 177.003204345703,70.3859710693359 173.194610595703,71.2526702880859 170.655548095703,72.9860687255859 168.116485595703,74.7194671630859 166.846954345703,77.3195648193359 166.846954345703,80.7863616943359 166.846954345703,83.0812835693359 167.725860595703,84.7292327880859 169.483673095703,85.7302093505859 171.241485595703,86.7311859130859 173.560821533203,87.3781585693359 176.441680908203,87.6711273193359 179.322540283203,87.9640960693359 182.423126220703,88.2326507568359 185.743438720703,88.4767913818359 188.917266845703,88.6721038818359 192.127716064453,89.0261077880859 195.374786376953,89.5388031005859 198.621856689453,90.0514984130859 201.612579345703,91.0402679443359 204.346954345703,92.5051116943359 207.081329345703,93.9699554443359 209.278594970703,96.1428070068359 210.938751220703,99.0236663818359 212.598907470703,101.904525756836 213.428985595703,105.835189819336 213.428985595703,110.815658569336 213.428985595703,118.969955444336 210.780059814453,125.073471069336 205.482208251953,129.126205444336 200.184356689453,133.178939819336 192.213165283203,135.205307006836 181.568634033203,135.205307006836 174.830352783203,135.205307006836 168.714630126953,134.216537475586 163.221466064453,132.238998413086 157.728302001953,130.261459350586 152.808868408203,127.295150756836 148.463165283203,123.340072631836L157.325469970703,112.426986694336C161.475860595703,115.551986694336 165.565216064453,117.895736694336 169.593536376953,119.458236694336 173.621856689453,121.020736694336 177.613555908203,121.801986694336 181.568634033203,121.801986694336 187.476837158203,121.801986694336 191.907989501953,120.886459350586 194.862091064453,119.055404663086 197.816192626953,117.224349975586 199.293243408203,114.477767944336 199.293243408203,110.815658569336 199.293243408203,107.983627319336 198.304473876953,105.981674194336 196.326934814453,104.809799194336 194.349395751953,103.637924194336 191.761505126953,102.868881225586 188.563262939453,102.502670288086 185.365020751953,102.136459350586 181.934844970703,101.831283569336 178.272735595703,101.587142944336 175.196563720703,101.343002319336 172.144805908203,100.964584350586 169.117462158203,100.451889038086 166.090118408203,99.9391937255859 163.331329345703,99.0114593505859 160.841094970703,97.6686859130859 158.350860595703,96.3259124755859 156.361114501953,94.3361663818359 154.871856689453,91.6994476318359 153.382598876953,89.0627288818359 152.637969970703,85.5226898193359 152.637969970703,81.0793304443359 152.637969970703,73.0226898193359 155.103790283203,66.9924163818359 160.035430908203,62.9885139465332 164.967071533203,58.9846038818359 172.315704345703,56.9826507568359 182.081329345703,56.9826545715332z M104.078323364258,56.9826545715332C113.648628234863,56.9826507568359 121.058296203613,60.4982757568359 126.307327270508,67.5295257568359 131.556350708008,74.5607757568359 134.180862426758,84.4240570068359 134.180862426758,97.1193695068359L134.180862426758,102.099838256836 86.3794937133789,102.099838256836 87.5347442626953,109.790267944336C88.3709259033203,112.207260131836 89.6251983642578,114.258041381836 91.2975616455078,115.942611694336 94.6422882080078,119.311752319336 99.3419952392578,120.996322631836 105.396682739258,120.996322631836 108.424026489258,120.996322631836 111.426956176758,120.385971069336 114.405471801758,119.165267944336 117.383979797363,117.944564819336 120.045112609863,116.235580444336 122.388870239258,114.038314819336L132.203323364258,123.852767944336C128.443557739258,127.466049194336 124.219917297363,130.261459350586 119.532424926758,132.238998413086 114.844917297363,134.216537475586 110.133003234863,135.205307006836 105.396682739258,135.205307006836 94.8009796142578,135.205307006836 86.5978469848633,132.251205444336 80.7873077392578,126.343002319336 74.9767608642578,120.434799194336 72.0714874267578,112.036361694336 72.0714874267578,101.147689819336L72.0714874267578,92.5783538818359C72.0714874267578,81.2502288818359 74.8668975830078,72.4855804443359 80.4577178955078,66.2844085693359 86.0485305786133,60.0832366943359 93.9220657348633,56.9826507568359 104.078323364258,56.9826545715332z M46.5087852478027,56.9826545715332C49.9755821228027,56.9826507568359 53.1127891540527,57.4831390380859 55.9204139709473,58.4841156005859 58.7280235290527,59.4850921630859 61.1816368103027,60.9621429443359 63.2812538146973,62.9152641296387L53.5400352478027,76.0988616943359C52.2216758728027,74.4875335693359 50.5615196228027,73.2668304443359 48.5595664978027,72.4367523193359 46.5576171875,71.6066741943359 44.23828125,71.1916351318359 41.6015663146973,71.1916351318359 36.865234375,71.1916351318359 33.19091796875,72.4977874755859 30.5786094665527,75.1100921630859 27.9663066864014,77.7223968505859 26.6601543426514,81.3478851318359 26.6601581573486,85.9865570068359L26.6601581573486,134.106674194336 11.7187509536743,134.106674194336 11.7187509536743,58.0812835693359 26.6601581573486,58.0812835693359 26.6601581573486,69.0186157226563 29.1046142578125,65.3322601318359C30.6121807098389,63.5744476318359 32.2998046875,62.0607757568359 34.16748046875,60.7912445068359 37.90283203125,58.2521820068359 42.0166015625,56.9826507568359 46.5087852478027,56.9826545715332z" transform="translate(258 6)" fill="#1F2528"/>
  <rect x="104" y="206" width="94" height="10" rx="5" fill="#7A2634"/>
  <path d="M0 28H84C129 28 160 52 160 88C160 117 136 137 97 137H62C28 137 0 161 0 197C0 233 28 257 67 257H153" transform="translate(72 178)" stroke="#1F2528" stroke-width="20" stroke-linecap="round" stroke-linejoin="round"/>
  <path d="M240.674987792969,70.4592132568359C235.059753417969,70.4592132568359 230.689636230469,72.3146820068359 227.564636230469,76.0256195068359 226.002136230469,77.8810882568359 224.830261230469,80.1210784912109 224.049011230469,82.7455902099609L223.095825195313,90.0881195068359 256.568542480469,90.0881195068359C256.129089355469,83.9357757568359 254.529968261719,79.1262054443359 251.771179199219,75.6594085693359 249.012390136719,72.1926116943359 245.313659667969,70.4592132568359 240.674987792969,70.4592132568359z M3.662109375,58.0812835693359L18.896484375,58.0812835693359 38.0280647277832,112.177474975586 55.7373008728027,58.0812835693359 70.9716796875,58.0812835693359 38.5986366271973,151.904525756836C36.7919921875,157.129135131836 34.1796875,160.754623413086 30.7617168426514,162.780990600586 27.3437480926514,164.807357788086 22.6562480926514,165.820541381836 16.6992168426514,165.820541381836L13.6962881088257,165.820541381836 13.6962881088257,151.465072631836 16.6992168426514,151.465072631836C19.482421875,151.465072631836 21.69189453125,150.903549194336 23.32763671875,149.780502319336 24.9633769989014,148.657455444336 26.3915996551514,146.728744506836 27.6123027801514,143.994369506836L31.2443180084229,132.899703979492 3.662109375,58.0812835693359z M447.144653320313,56.9826507568359C453.101684570313,56.9826507568359 458.643676757813,57.7883148193359 463.770629882813,59.3996429443359 468.897583007813,61.0109710693359 473.707153320313,63.4767913818359 478.199340820313,66.7971038818359L469.190551757813,77.7101898193359C465.381958007813,75.2687835693359 461.634399414063,73.4377288818359 457.947875976563,72.2170257568359 454.261352539063,70.9963226318359 450.660278320313,70.3859710693359 447.144653320313,70.3859710693359 442.066528320313,70.3859710693359 438.257934570313,71.2526702880859 435.718872070313,72.9860687255859 433.179809570313,74.7194671630859 431.910278320313,77.3195648193359 431.910278320313,80.7863616943359 431.910278320313,83.0812835693359 432.789184570313,84.7292327880859 434.546997070313,85.7302093505859 436.304809570313,86.7311859130859 438.624145507813,87.3781585693359 441.505004882813,87.6711273193359 444.385864257813,87.9640960693359 447.486450195313,88.2326507568359 450.806762695313,88.4767913818359 453.980590820313,88.6721038818359 457.191040039063,89.0261077880859 460.438110351563,89.5388031005859 463.685180664063,90.0514984130859 466.675903320313,91.0402679443359 469.410278320313,92.5051116943359 472.144653320313,93.9699554443359 474.341918945313,96.1428070068359 476.002075195313,99.0236663818359 477.662231445313,101.904525756836 478.492309570313,105.835189819336 478.492309570313,110.815658569336 478.492309570313,118.969955444336 475.843383789063,125.073471069336 470.545532226563,129.126205444336 465.247680664063,133.178939819336 457.276489257813,135.205307006836 446.631958007813,135.205307006836 439.893676757813,135.205307006836 433.777954101563,134.216537475586 428.284790039063,132.238998413086 422.791625976563,130.261459350586 417.872192382813,127.295150756836 413.526489257813,123.340072631836L422.388793945313,112.426986694336C426.539184570313,115.551986694336 430.628540039063,117.895736694336 434.656860351563,119.458236694336 438.685180664063,121.020736694336 442.676879882813,121.801986694336 446.631958007813,121.801986694336 452.540161132813,121.801986694336 456.971313476563,120.886459350586 459.925415039063,119.055404663086 462.879516601563,117.224349975586 464.356567382813,114.477767944336 464.356567382813,110.815658569336 464.356567382813,107.983627319336 463.367797851563,105.981674194336 461.390258789063,104.809799194336 459.412719726563,103.637924194336 456.824829101563,102.868881225586 453.626586914063,102.502670288086 450.428344726563,102.136459350586 446.998168945313,101.831283569336 443.336059570313,101.587142944336 440.259887695313,101.343002319336 437.208129882813,100.964584350586 434.180786132813,100.451889038086 431.153442382813,99.9391937255859 428.394653320313,99.0114593505859 425.904418945313,97.6686859130859 423.414184570313,96.3259124755859 421.424438476563,94.3361663818359 419.935180664063,91.6994476318359 418.445922851563,89.0627288818359 417.701293945313,85.5226898193359 417.701293945313,81.0793304443359 417.701293945313,73.0226898193359 420.167114257813,66.9924163818359 425.098754882813,62.9885101318359 430.030395507813,58.9846038818359 437.379028320313,56.9826507568359 447.144653320313,56.9826507568359z M326.441680908203,56.9826507568359C334.449493408203,56.9826507568359,340.650665283203,59.6804046630859,345.045196533203,65.0759124755859L348.811828613281,72.5185241699219 352.845489501953,66.0646820068359C354.432403564453,64.1115570068359 356.202423095703,62.4514007568359 358.155548095703,61.0842132568359 362.061798095703,58.3498382568359 366.383087158203,56.9826507568359 371.119415283203,56.9826507568359 379.371368408203,56.9826507568359 385.755645751953,59.6804046630859 390.272247314453,65.0759124755859 394.788848876953,70.4714202880859 397.047149658203,78.1008148193359 397.047149658203,87.9640960693359L397.047149658203,134.106674194336 382.105743408203,134.106674194336 382.105743408203,88.0373382568359C382.105743408203,82.6662445068359 380.726348876953,78.5158538818359 377.967559814453,75.5861663818359 375.208770751953,72.6564788818359 371.290313720703,71.1916351318359 366.212188720703,71.1916351318359 361.573516845703,71.1916351318359 357.984649658203,72.6076507568359 355.445587158203,75.4396820068359 352.906524658203,78.2717132568359 351.636993408203,82.2756195068359 351.636993408203,87.4514007568359L351.470703125,86.6402053833008 351.636993408203,87.9640960693359 351.636993408203,134.106674194336 336.695587158203,134.106674194336 336.695587158203,88.0373382568359C336.695587158203,82.6662445068359 335.377227783203,78.5158538818359 332.740509033203,75.5861663818359 330.103790283203,72.6564788818359 326.368438720703,71.1916351318359 321.534454345703,71.1916351318359 316.651641845703,71.1916351318359 312.879669189453,72.4855804443359 310.218536376953,75.0734710693359 307.557403564453,77.6613616943359 306.226837158203,81.2990570068359 306.226837158203,85.9865570068359L306.226837158203,134.106674194336 291.285430908203,134.106674194336 291.285430908203,58.0812835693359 306.226837158203,58.0812835693359 306.226837158203,69.5610504150391 313.880645751953,60.7180023193359C317.664825439453,58.2277679443359,321.851837158203,56.9826507568359,326.441680908203,56.9826507568359z M240.674987792969,56.9826507568359C250.245300292969,56.9826507568359 257.654968261719,60.4982757568359 262.903991699219,67.5295257568359 268.153015136719,74.5607757568359 270.777526855469,84.4240570068359 270.777526855469,97.1193695068359L270.777526855469,102.099838256836 222.976165771484,102.099838256836 224.131408691406,109.790267944336C224.967590332031,112.207260131836 226.221862792969,114.258041381836 227.894226074219,115.942611694336 231.238952636719,119.311752319336 235.938659667969,120.996322631836 241.993347167969,120.996322631836 245.020690917969,120.996322631836 248.023620605469,120.385971069336 251.002136230469,119.165267944336 253.980651855469,117.944564819336 256.641784667969,116.235580444336 258.985534667969,114.038314819336L268.799987792969,123.852767944336C265.040222167969,127.466049194336 260.816589355469,130.261459350586 256.129089355469,132.238998413086 251.441589355469,134.216537475586 246.729675292969,135.205307006836 241.993347167969,135.205307006836 231.397644042969,135.205307006836 223.194519042969,132.251205444336 217.383972167969,126.343002319336 211.573425292969,120.434799194336 208.668151855469,112.036361694336 208.668151855469,101.147689819336L208.668151855469,92.5783538818359C208.668151855469,81.2502288818359 211.463562011719,72.4855804443359 217.054382324219,66.2844085693359 222.645202636719,60.0832366943359 230.518737792969,56.9826507568359 240.674987792969,56.9826507568359z M111.547996520996,56.9826507568359C117.505020141602,56.9826507568359 123.047012329102,57.7883148193359 128.173980712891,59.3996429443359 133.300918579102,61.0109710693359 138.110504150391,63.4767913818359 142.602691650391,66.7971038818359L133.593902587891,77.7101898193359C129.785293579102,75.2687835693359 126.037734985352,73.4377288818359 122.351219177246,72.2170257568359 118.664695739746,70.9963226318359 115.063621520996,70.3859710693359 111.547996520996,70.3859710693359 106.469871520996,70.3859710693359 102.661277770996,71.2526702880859 100.122215270996,72.9860687255859 97.5831527709961,74.7194671630859 96.3136215209961,77.3195648193359 96.3136215209961,80.7863616943359 96.3136215209961,83.0812835693359 97.1925277709961,84.7292327880859 98.9503402709961,85.7302093505859 100.708152770996,86.7311859130859 103.027488708496,87.3781585693359 105.908348083496,87.6711273193359 108.789207458496,87.9640960693359 111.889793395996,88.2326507568359 115.210105895996,88.4767913818359 118.383934020996,88.6721038818359 121.594383239746,89.0261077880859 124.841453552246,89.5388031005859 128.088516235352,90.0514984130859 131.079238891602,91.0402679443359 133.813629150391,92.5051116943359 136.548004150391,93.9699554443359 138.745269775391,96.1428070068359 140.405426025391,99.0236663818359 142.065582275391,101.904525756836 142.895660400391,105.835189819336 142.895660400391,110.815658569336 142.895660400391,118.969955444336 140.246734619141,125.073471069336 134.948883056641,129.126205444336 129.651016235352,133.178939819336 121.679824829102,135.205307006836 111.035301208496,135.205307006836 104.297019958496,135.205307006836 98.1812973022461,134.216537475586 92.6881332397461,132.238998413086 87.1949691772461,130.261459350586 82.2755355834961,127.295150756836 77.9298324584961,123.340072631836L86.7921371459961,112.426986694336C90.9425277709961,115.551986694336 95.0318832397461,117.895736694336 99.0602035522461,119.458236694336 103.088523864746,121.020736694336 107.080223083496,121.801986694336 111.035301208496,121.801986694336 116.943504333496,121.801986694336 121.374656677246,120.886459350586 124.328758239746,119.055404663086 127.282852172852,117.224349975586 128.759902954102,114.477767944336 128.759918212891,110.815658569336 128.759902954102,107.983627319336 127.771133422852,105.981674194336 125.793601989746,104.809799194336 123.816055297852,103.637924194336 121.228164672852,102.868881225586 118.029930114746,102.502670288086 114.831687927246,102.136459350586 111.401512145996,101.831283569336 107.739402770996,101.587142944336 104.663230895996,101.343002319336 101.611473083496,100.964584350586 98.5841293334961,100.451889038086 95.5567855834961,99.9391937255859 92.7979965209961,99.0114593505859 90.3077621459961,97.6686859130859 87.8175277709961,96.3259124755859 85.8277816772461,94.3361663818359 84.3385238647461,91.6994476318359 82.8492660522461,89.0627288818359 82.1046371459961,85.5226898193359 82.1046371459961,81.0793304443359 82.1046371459961,73.0226898193359 84.5704574584961,66.9924163818359 89.5020980834961,62.9885101318359 94.4337387084961,58.9846038818359 101.782371520996,56.9826507568359 111.547996520996,56.9826507568359z M163.916290283203,35.9621429443359L178.857696533203,35.9621429443359 178.857696533203,58.0812835693359 190.356719970703,58.0812835693359 190.356719970703,71.5578460693359 178.857696533203,71.5578460693359 178.857696533203,114.477767944336C178.857696533203,116.284408569336 179.223907470703,117.700424194336 179.956329345703,118.725814819336 180.688751220703,119.751205444336 181.762969970703,120.263900756836 183.178985595703,120.263900756836L190.356719970703,120.263900756836 190.356719970703,134.472885131836 181.714141845703,134.472885131836C175.464141845703,134.472885131836 170.935333251953,132.739486694336 168.127716064453,129.272689819336 165.320098876953,125.805892944336 163.916290283203,120.825424194336 163.916290283203,114.331283569336L163.916290283203,71.5578460693359 156.079376220703,71.5578460693359 156.079376220703,58.0812835693359 163.916290283203,58.0812835693359 163.916290283203,35.9621429443359z" transform="translate(258 178)" fill="#1F2528"/>
</svg>
