<svg width="64" height="64" viewBox="0 0 64 64" fill="none" xmlns="http://www.w3.org/2000/svg">
  <rect width="64" height="64" rx="16" fill="#F7F3EC"/>
  <rect x="4" y="4" width="56" height="56" rx="14" fill="#FBF8F4" stroke="#DDD2C5" stroke-width="2"/>
  <path d="M16 41V16H27.5C34.5 16 39 19.8 39 24.9C39 30 34.5 33.8 27.5 33.8H21.4" stroke="#1F2528" stroke-width="4.5" stroke-linecap="round" stroke-linejoin="round"/>
  <rect x="35.5" y="23.5" width="8" height="3" rx="1.5" fill="#7A2634"/>
  <path d="M29 46H42.5C48 46 51.5 42.9 51.5 38.1C51.5 33.6 48.2 30.8 42.8 30.8H37.5C33 30.8 30 28.1 30 24C30 19 33.8 15.5 39.6 15.5H50" stroke="#1F2528" stroke-width="4.5" stroke-linecap="round" stroke-linejoin="round"/>
</svg>
